<svg width="100%" height="100%" viewBox="0 0 53 42" version="1.1" xmlns="http://www.w3.org/2000/svg" xmlns:xlink="http://www.w3.org/1999/xlink" xml:space="preserve" xmlns:serif="http://www.serif.com/" style="fill-rule:evenodd;clip-rule:evenodd;stroke-linejoin:round;stroke-miterlimit:1.41421;">
    <g transform="matrix(1,0,0,1,-287.064,-197.548)">
        <g transform="matrix(112.166,0,0,112.166,279.212,274.718)">
            <path d="M0.07,-0.406C0.1,-0.444 0.12,-0.477 0.131,-0.505L0.073,-0.592C0.073,-0.607 0.077,-0.623 0.086,-0.637C0.094,-0.653 0.106,-0.665 0.121,-0.674C0.136,-0.683 0.154,-0.688 0.173,-0.688C0.202,-0.688 0.226,-0.678 0.246,-0.658C0.266,-0.637 0.276,-0.611 0.276,-0.58C0.276,-0.543 0.261,-0.502 0.232,-0.455C0.203,-0.408 0.157,-0.363 0.094,-0.319L0.07,-0.406ZM0.332,-0.406C0.362,-0.444 0.382,-0.477 0.393,-0.505L0.335,-0.592C0.335,-0.607 0.339,-0.623 0.347,-0.637C0.356,-0.653 0.368,-0.665 0.383,-0.674C0.398,-0.683 0.416,-0.688 0.435,-0.688C0.464,-0.688 0.488,-0.678 0.508,-0.658C0.528,-0.637 0.538,-0.611 0.538,-0.58C0.538,-0.543 0.523,-0.502 0.494,-0.455C0.465,-0.408 0.419,-0.363 0.356,-0.319L0.332,-0.406Z" style="fill:rgb(26,26,26);fill-rule:nonzero;"/>
        </g>
    </g>
</svg>